<svg xmlns="http://www.w3.org/2000/svg" viewBox="0 0 600 340" role="img" aria-labelledby="title desc"><title id="title">OCR 2.0 — local document intelligence</title><desc id="desc">Original animated technical illustration for Yernur Kanat. Diagrams are conceptual, not live telemetry.</desc><style>.still{display:none}@media(prefers-reduced-motion:reduce){.motion{display:none}.still{display:inline}}</style><rect width="600" height="340" fill="#20251f"/><path fill="#98b77b" aria-label="03" d="M32.462890625 27.044921875Q32.462890625 29.025390625 31.7333984375 30.0712890625Q31.00390625 31.1171875 29.580078125 31.1171875Q28.15625 31.1171875 27.44140625 30.0771484375Q26.7265625 29.037109375 26.7265625 27.044921875Q26.7265625 25.0 27.423828125 23.986328125Q28.12109375 22.97265625 29.615234375 22.97265625Q31.07421875 22.97265625 31.7685546875 23.9951171875Q32.462890625 25.017578125 32.462890625 27.044921875ZM31.390625 27.044921875Q31.390625 25.345703125 30.9775390625 24.5869140625Q30.564453125 23.828125 29.615234375 23.828125Q28.642578125 23.828125 28.2177734375 24.578125Q27.79296875 25.328125 27.79296875 27.044921875Q27.79296875 28.71484375 28.2236328125 29.4853515625Q28.654296875 30.255859375 29.591796875 30.255859375Q30.5234375 30.255859375 30.95703125 29.46484375Q31.390625 28.673828125 31.390625 27.044921875ZM28.90625 27.748046875V26.2890625H30.283203125V27.748046875Z M39.640625 28.83203125Q39.640625 29.921875 38.90234375 30.51953125Q38.1640625 31.1171875 36.83984375 31.1171875Q35.5859375 31.1171875 34.8359375 30.548828125Q34.0859375 29.98046875 33.951171875 28.87890625L35.041015625 28.779296875Q35.251953125 30.244140625 36.83984375 30.244140625Q37.63671875 30.244140625 38.0908203125 29.875Q38.544921875 29.505859375 38.544921875 28.796875Q38.544921875 28.357421875 38.2783203125 28.0556640625Q38.01171875 27.75390625 37.5546875 27.5927734375Q37.09765625 27.431640625 36.529296875 27.431640625H35.931640625V26.517578125H36.505859375Q37.009765625 26.517578125 37.4287109375 26.3505859375Q37.84765625 26.18359375 38.087890625 25.87890625Q38.328125 25.57421875 38.328125 25.158203125Q38.328125 24.537109375 37.9384765625 24.1884765625Q37.548828125 23.83984375 36.78125 23.83984375Q36.083984375 23.83984375 35.6533203125 24.197265625Q35.22265625 24.5546875 35.15234375 25.205078125L34.091796875 25.123046875Q34.208984375 24.109375 34.9326171875 23.541015625Q35.65625 22.97265625 36.79296875 22.97265625Q38.03515625 22.97265625 38.7236328125 23.5205078125Q39.412109375 24.068359375 39.412109375 25.046875Q39.412109375 25.744140625 38.94921875 26.259765625Q38.486328125 26.775390625 37.68359375 26.939453125V26.962890625Q38.568359375 27.0625 39.1044921875 27.583984375Q39.640625 28.10546875 39.640625 28.83203125Z"/><path fill="#e6e7d9" aria-label="APPLIED MODELS" d="M72.05859375 31.0 71.25 28.76171875H67.951171875L67.1484375 31.0H66.0L68.98828125 23.095703125H70.259765625L73.1953125 31.0ZM69.609375 23.939453125 69.5390625 24.16796875 69.134765625 25.41015625 68.25 27.888671875H70.962890625L69.94921875 24.958984375Z M80.7578125 25.462890625Q80.7578125 26.1953125 80.4091796875 26.76953125Q80.060546875 27.34375 79.4130859375 27.666015625Q78.765625 27.98828125 77.916015625 27.98828125H76.26953125V31.0H75.150390625V23.095703125H77.845703125Q79.240234375 23.095703125 79.9990234375 23.7197265625Q80.7578125 24.34375 80.7578125 25.462890625ZM79.6328125 25.48046875Q79.6328125 23.9921875 77.7109375 23.9921875H76.26953125V27.103515625H77.7578125Q78.630859375 27.103515625 79.1318359375 26.67578125Q79.6328125 26.248046875 79.6328125 25.48046875Z M88.958984375 25.462890625Q88.958984375 26.1953125 88.6103515625 26.76953125Q88.26171875 27.34375 87.6142578125 27.666015625Q86.966796875 27.98828125 86.1171875 27.98828125H84.470703125V31.0H83.3515625V23.095703125H86.046875Q87.44140625 23.095703125 88.2001953125 23.7197265625Q88.958984375 24.34375 88.958984375 25.462890625ZM87.833984375 25.48046875Q87.833984375 23.9921875 85.912109375 23.9921875H84.470703125V27.103515625H85.958984375Q86.83203125 27.103515625 87.3330078125 26.67578125Q87.833984375 26.248046875 87.833984375 25.48046875Z M91.9921875 31.0V23.095703125H93.111328125V30.0859375H97.048828125V31.0Z M99.98828125 23.095703125H104.810546875V24.009765625H102.958984375V30.0859375H104.810546875V31.0H99.98828125V30.0859375H101.83984375V24.009765625H99.98828125Z M107.955078125 31.0V23.095703125H113.33984375V24.009765625H109.07421875V26.482421875H112.98828125V27.384765625H109.07421875V30.0859375H113.580078125V31.0Z M121.798828125 26.96875Q121.798828125 28.908203125 120.8994140625 29.9541015625Q120.0 31.0 118.32421875 31.0H116.15625V23.095703125H117.978515625Q119.90625 23.095703125 120.8525390625 24.0595703125Q121.798828125 25.0234375 121.798828125 26.96875ZM120.673828125 26.96875Q120.673828125 25.421875 120.029296875 24.7158203125Q119.384765625 24.009765625 117.984375 24.009765625H117.275390625V30.0859375H118.224609375Q119.466796875 30.0859375 120.0703125 29.306640625Q120.673828125 28.52734375 120.673828125 26.96875Z  M137.099609375 31.0V25.9140625Q137.099609375 25.123046875 137.1171875 24.736328125L137.134765625 24.150390625Q136.759765625 25.357421875 136.578125 25.85546875L135.6171875 28.421875H134.814453125L133.841796875 25.85546875Q133.736328125 25.5859375 133.279296875 24.150390625L133.302734375 25.9140625V31.0H132.365234375V23.095703125H133.75390625L134.837890625 25.9609375Q134.9609375 26.271484375 135.236328125 27.314453125L135.388671875 26.787109375L135.646484375 25.966796875L136.73046875 23.095703125H138.048828125V31.0Z M146.408203125 27.009765625Q146.408203125 28.984375 145.6318359375 30.05078125Q144.85546875 31.1171875 143.40234375 31.1171875Q141.943359375 31.1171875 141.17578125 30.068359375Q140.408203125 29.01953125 140.408203125 27.009765625Q140.408203125 25.03515625 141.169921875 24.00390625Q141.931640625 22.97265625 143.4140625 22.97265625Q144.861328125 22.97265625 145.634765625 23.9892578125Q146.408203125 25.005859375 146.408203125 27.009765625ZM145.23046875 27.009765625Q145.23046875 23.88671875 143.4140625 23.88671875Q141.5859375 23.88671875 141.5859375 27.009765625Q141.5859375 28.591796875 142.048828125 29.400390625Q142.51171875 30.208984375 143.408203125 30.208984375Q144.36328125 30.208984375 144.796875 29.388671875Q145.23046875 28.568359375 145.23046875 27.009765625Z M154.603515625 26.96875Q154.603515625 28.908203125 153.7041015625 29.9541015625Q152.8046875 31.0 151.12890625 31.0H148.9609375V23.095703125H150.783203125Q152.7109375 23.095703125 153.6572265625 24.0595703125Q154.603515625 25.0234375 154.603515625 26.96875ZM153.478515625 26.96875Q153.478515625 25.421875 152.833984375 24.7158203125Q152.189453125 24.009765625 150.7890625 24.009765625H150.080078125V30.0859375H151.029296875Q152.271484375 30.0859375 152.875 29.306640625Q153.478515625 28.52734375 153.478515625 26.96875Z M157.162109375 31.0V23.095703125H162.546875V24.009765625H158.28125V26.482421875H162.1953125V27.384765625H158.28125V30.0859375H162.787109375V31.0Z M165.802734375 31.0V23.095703125H166.921875V30.0859375H170.859375V31.0Z M179.224609375 28.83203125Q179.224609375 29.91015625 178.4365234375 30.513671875Q177.6484375 31.1171875 176.189453125 31.1171875Q173.51171875 31.1171875 173.078125 29.01953125L174.162109375 28.802734375Q174.326171875 29.55859375 174.841796875 29.9013671875Q175.357421875 30.244140625 176.21875 30.244140625Q177.150390625 30.244140625 177.6337890625 29.880859375Q178.1171875 29.517578125 178.1171875 28.849609375Q178.1171875 28.439453125 177.9267578125 28.181640625Q177.736328125 27.923828125 177.42578125 27.759765625Q177.115234375 27.595703125 176.7255859375 27.4931640625Q176.3359375 27.390625 175.9375 27.291015625Q174.994140625 27.044921875 174.5927734375 26.8515625Q174.19140625 26.658203125 173.951171875 26.4091796875Q173.7109375 26.16015625 173.587890625 25.837890625Q173.46484375 25.515625 173.46484375 25.08203125Q173.46484375 24.068359375 174.1767578125 23.5205078125Q174.888671875 22.97265625 176.21875 22.97265625Q177.4609375 22.97265625 178.1171875 23.40625Q178.7734375 23.83984375 179.03125 24.87109375L177.9296875 25.064453125Q177.7890625 24.408203125 177.3671875 24.1123046875Q176.9453125 23.81640625 176.212890625 23.81640625Q174.5546875 23.81640625 174.5546875 25.064453125Q174.5546875 25.416015625 174.7099609375 25.6357421875Q174.865234375 25.85546875 175.1318359375 25.9990234375Q175.3984375 26.142578125 175.7529296875 26.236328125Q176.107421875 26.330078125 176.51171875 26.435546875Q177.326171875 26.640625 177.68359375 26.7783203125Q178.041015625 26.916015625 178.3193359375 27.091796875Q178.59765625 27.267578125 178.796875 27.5078125Q178.99609375 27.748046875 179.1103515625 28.0703125Q179.224609375 28.392578125 179.224609375 28.83203125Z"/><path d="M26,47 L574,47" stroke="#475043" stroke-width="1" /><path d="M61 76 H165 L189 100 V222 H61 Z M165 76 V100 H189" fill="none" stroke="#e6e7d9" stroke-width="1.4"/><path d="M80,112 L150,112" stroke="#79846e" stroke-width="1" /><path d="M80,125 L170,125" stroke="#79846e" stroke-width="1" /><path d="M80,138 L146,138" stroke="#79846e" stroke-width="1" /><path d="M80,151 L169,151" stroke="#79846e" stroke-width="1" /><path d="M80,164 L129,164" stroke="#79846e" stroke-width="1" /><path d="M80,177 L170,177" stroke="#79846e" stroke-width="1" /><path d="M80,190 L152,190" stroke="#79846e" stroke-width="1" /><path class="motion" d="M54 105 H196" stroke="#98b77b" stroke-width="2"><animateTransform attributeName="transform" type="translate" values="0 0;0 96;0 0" dur="5s" repeatCount="indefinite"/></path><path d="M203,152 L250,152" stroke="#89997a" stroke-width="1" /><rect x="258" y="124" width="77" height="57" fill="none" stroke="#98b77b"/><path fill="#98b77b" aria-label="LLM" d="M276.0830078125 159.0V147.1435546875H277.76171875V157.62890625H283.66796875V159.0Z M286.884765625 159.0V147.1435546875H288.5634765625V157.62890625H294.4697265625V159.0Z M303.8388671875 159.0V151.37109375Q303.8388671875 150.1845703125 303.865234375 149.6044921875L303.8916015625 148.7255859375Q303.3291015625 150.5361328125 303.056640625 151.283203125L301.615234375 155.1328125H300.4111328125L298.9521484375 151.283203125Q298.7939453125 150.87890625 298.1083984375 148.7255859375L298.1435546875 151.37109375V159.0H296.7373046875V147.1435546875H298.8203125L300.4462890625 151.44140625Q300.630859375 151.9072265625 301.0439453125 153.4716796875L301.2724609375 152.6806640625L301.6591796875 151.4501953125L303.28515625 147.1435546875H305.2626953125V159.0Z"/><path d="M342,152 L384,152" stroke="#89997a" stroke-width="1" /><path fill="#e6e7d9" aria-label="{" d="M404.380859375 114.67822265625Q402.0322265625 114.67822265625 400.55078125 113.151611328125Q399.0693359375 111.625 399.0693359375 109.2041015625V102.86279296875Q399.0693359375 100.9296875 397.75048828125 99.845703125Q396.431640625 98.76171875 394.10107421875 98.67138671875V96.1962890625Q396.44970703125 96.10595703125 397.759521484375 95.00390625Q399.0693359375 93.90185546875 399.0693359375 92.02294921875V85.66357421875Q399.0693359375 83.1884765625 400.53271484375 81.68896484375Q401.99609375 80.189453125 404.380859375 80.189453125H409.16845703125V82.70068359375H405.3203125Q403.67626953125 82.70068359375 402.95361328125 83.49560546875Q402.23095703125 84.29052734375 402.23095703125 86.2236328125V92.474609375Q402.23095703125 94.2451171875 401.07470703125 95.591064453125Q399.91845703125 96.93701171875 398.0576171875 97.388671875V97.4248046875Q399.900390625 97.8583984375 401.065673828125 99.186279296875Q402.23095703125 100.51416015625 402.23095703125 102.375V108.64404296875Q402.23095703125 110.55908203125 402.95361328125 111.363037109375Q403.67626953125 112.1669921875 405.3203125 112.1669921875H409.16845703125V114.67822265625Z"/><path fill="#e6e7d9" aria-label="}" d="M393.01708984375 223.67822265625V221.1669921875H396.865234375Q398.50927734375 221.1669921875 399.240966796875 220.363037109375Q399.97265625 219.55908203125 399.97265625 217.64404296875V211.375Q399.97265625 209.5322265625 401.12890625 208.1953125Q402.28515625 206.8583984375 404.1279296875 206.4248046875V206.388671875Q402.28515625 205.93701171875 401.12890625 204.58203125Q399.97265625 203.22705078125 399.97265625 201.474609375V195.2236328125Q399.97265625 193.32666015625 399.25 192.513671875Q398.52734375 191.70068359375 396.865234375 191.70068359375H393.01708984375V189.189453125H397.8046875Q400.20751953125 189.189453125 401.661865234375 190.68896484375Q403.1162109375 192.1884765625 403.1162109375 194.66357421875V201.02294921875Q403.1162109375 202.919921875 404.43505859375 204.012939453125Q405.75390625 205.10595703125 408.08447265625 205.1962890625V207.67138671875Q405.73583984375 207.76171875 404.426025390625 208.854736328125Q403.1162109375 209.94775390625 403.1162109375 211.86279296875V218.2041015625Q403.1162109375 220.64306640625 401.634765625 222.16064453125Q400.1533203125 223.67822265625 397.8046875 223.67822265625Z"/><path fill="#e6e7d9" aria-label="field: value" d="M423.96484375 122.57421875V129.0H422.734375V122.57421875H420.943359375V121.603515625H422.734375V121.4326171875Q422.734375 120.03125 423.39404296875 119.443359375Q424.0537109375 118.85546875 425.591796875 118.85546875Q426.083984375 118.85546875 426.65478515625 118.89990234375Q427.2255859375 118.9443359375 427.5126953125 118.9990234375V119.990234375Q427.3076171875 119.9560546875 426.68212890625 119.9150390625Q426.056640625 119.8740234375 425.7353515625 119.8740234375Q425.0244140625 119.8740234375 424.662109375 120.03125Q424.2998046875 120.1884765625 424.13232421875 120.5439453125Q423.96484375 120.8994140625 423.96484375 121.53515625V121.603515625H427.3212890625V122.57421875Z M433.494140625 128.029296875H436.091796875V129.0H429.37890625V128.029296875H432.263671875V122.57421875H430.0830078125V121.603515625H433.494140625ZM432.126953125 120.16796875V118.85546875H433.494140625V120.16796875Z M439.00390625 125.5615234375Q439.00390625 126.8056640625 439.55419921875 127.509765625Q440.1044921875 128.2138671875 441.0615234375 128.2138671875Q441.765625 128.2138671875 442.29541015625 127.90966796875Q442.8251953125 127.60546875 443.0029296875 127.0791015625L444.0830078125 127.38671875Q443.7822265625 128.234375 442.97900390625 128.685546875Q442.17578125 129.13671875 441.0615234375 129.13671875Q439.4482421875 129.13671875 438.580078125 128.1318359375Q437.7119140625 127.126953125 437.7119140625 125.25390625Q437.7119140625 123.4287109375 438.56298828125 122.44775390625Q439.4140625 121.466796875 441.0205078125 121.466796875Q442.626953125 121.466796875 443.4541015625 122.4443359375Q444.28125 123.421875 444.28125 125.3974609375V125.5615234375ZM441.0341796875 122.3759765625Q440.1181640625 122.3759765625 439.5849609375 122.97412109375Q439.0517578125 123.572265625 439.017578125 124.6181640625H443.009765625Q442.818359375 122.3759765625 441.0341796875 122.3759765625Z M450.912109375 127.9951171875 452.8330078125 128.029296875V129.0L450.3037109375 128.97265625Q449.53125 128.8359375 449.17578125 128.357421875Q449.025390625 128.15234375 449.0048828125 127.236328125V119.826171875H447.029296875V118.85546875H450.2353515625V127.3798828125Q450.2421875 127.6875 450.40625 127.837890625Q450.5498046875 127.9677734375 450.912109375 127.9951171875ZM450.939453125 128.029296875ZM450.2353515625 127.3798828125ZM450.3447265625 129.0ZM449.0048828125 128.029296875V127.236328125Z M459.498046875 127.810546875Q459.1630859375 128.5283203125 458.609375 128.85302734375Q458.0556640625 129.177734375 457.228515625 129.177734375Q455.84765625 129.177734375 455.1982421875 128.2275390625Q454.548828125 127.27734375 454.548828125 125.36328125Q454.548828125 121.494140625 457.228515625 121.494140625Q458.0556640625 121.494140625 458.61279296875 121.7880859375Q459.169921875 122.08203125 459.5048828125 122.751953125H459.5185546875L459.5048828125 121.7197265625V118.85546875H460.7353515625V127.4755859375Q460.7353515625 128.630859375 460.7763671875 129.0H459.6005859375Q459.5732421875 128.8974609375 459.552734375 128.5009765625Q459.5322265625 128.1044921875 459.5322265625 127.810546875ZM455.8203125 125.322265625Q455.8203125 126.83984375 456.22705078125 127.53369140625Q456.6337890625 128.2275390625 457.5498046875 128.2275390625Q458.5478515625 128.2275390625 459.0263671875 127.50634765625Q459.5048828125 126.78515625 459.5048828125 125.212890625Q459.5048828125 123.7431640625 459.04345703125 123.0732421875Q458.58203125 122.4033203125 457.5634765625 122.4033203125Q456.640625 122.4033203125 456.23046875 123.107421875Q455.8203125 123.8115234375 455.8203125 125.322265625Z M465.3974609375 129.0V126.9560546875H467.00390625V129.0ZM465.3974609375 123.6474609375V121.603515625H467.00390625V123.6474609375Z  M483.697265625 129.0H482.2412109375L479.28125 121.603515625H480.662109375L482.494140625 126.416015625L482.6103515625 126.7783203125L482.9658203125 128.0361328125L483.205078125 127.236328125L483.4716796875 126.4296875L485.3583984375 121.603515625H486.732421875Z M494.7373046875 128.2412109375Q494.9150390625 128.2412109375 495.140625 128.193359375V128.958984375Q494.67578125 129.068359375 494.1904296875 129.068359375Q493.5068359375 129.068359375 493.19580078125 128.70947265625Q492.884765625 128.3505859375 492.84375 127.5849609375H492.802734375Q492.3583984375 128.412109375 491.75341796875 128.7744140625Q491.1484375 129.13671875 490.259765625 129.13671875Q489.1796875 129.13671875 488.6328125 128.548828125Q488.0859375 127.9609375 488.0859375 126.935546875Q488.0859375 124.5498046875 491.189453125 124.515625L492.802734375 124.48828125V124.0849609375Q492.802734375 123.189453125 492.4404296875 122.79638671875Q492.078125 122.4033203125 491.28515625 122.4033203125Q490.478515625 122.4033203125 490.123046875 122.6904296875Q489.767578125 122.9775390625 489.69921875 123.5791015625L488.4140625 123.462890625Q488.728515625 121.466796875 491.3056640625 121.466796875Q492.6728515625 121.466796875 493.35986328125 122.10595703125Q494.046875 122.7451171875 494.046875 123.955078125V127.140625Q494.046875 127.6875 494.1904296875 127.96435546875Q494.333984375 128.2412109375 494.7373046875 128.2412109375ZM490.57421875 128.2001953125Q491.23046875 128.2001953125 491.736328125 127.8857421875Q492.2421875 127.5712890625 492.5224609375 127.044921875Q492.802734375 126.5185546875 492.802734375 125.9580078125V125.349609375L491.50390625 125.376953125Q490.697265625 125.390625 490.2734375 125.5546875Q489.849609375 125.71875 489.61376953125 126.05712890625Q489.3779296875 126.3955078125 489.3779296875 126.9560546875Q489.3779296875 127.5166015625 489.68212890625 127.8583984375Q489.986328125 128.2001953125 490.57421875 128.2001953125Z M501.3203125 127.9951171875 503.2412109375 128.029296875V129.0L500.7119140625 128.97265625Q499.939453125 128.8359375 499.583984375 128.357421875Q499.43359375 128.15234375 499.4130859375 127.236328125V119.826171875H497.4375V118.85546875H500.6435546875V127.3798828125Q500.650390625 127.6875 500.814453125 127.837890625Q500.9580078125 127.9677734375 501.3203125 127.9951171875ZM501.34765625 128.029296875ZM500.6435546875 127.3798828125ZM500.7529296875 129.0ZM499.4130859375 128.029296875V127.236328125Z M506.5087890625 121.603515625V126.29296875Q506.5087890625 127.359375 506.84375 127.77294921875Q507.1787109375 128.1865234375 508.0400390625 128.1865234375Q508.921875 128.1865234375 509.4345703125 127.5849609375Q509.947265625 126.9833984375 509.947265625 125.8896484375V121.603515625H511.1845703125V127.4208984375Q511.1845703125 128.712890625 511.2255859375 129.0H510.0634765625Q510.056640625 128.9658203125 510.0498046875 128.8154296875Q510.04296875 128.6650390625 510.03271484375 128.47021484375Q510.0224609375 128.275390625 510.0087890625 127.7353515625H509.98828125Q509.564453125 128.5009765625 509.00732421875 128.81884765625Q508.4501953125 129.13671875 507.623046875 129.13671875Q506.40625 129.13671875 505.84228515625 128.53173828125Q505.2783203125 127.9267578125 505.2783203125 126.5322265625V121.603515625Z M514.6162109375 125.5615234375Q514.6162109375 126.8056640625 515.16650390625 127.509765625Q515.716796875 128.2138671875 516.673828125 128.2138671875Q517.3779296875 128.2138671875 517.90771484375 127.90966796875Q518.4375 127.60546875 518.615234375 127.0791015625L519.6953125 127.38671875Q519.39453125 128.234375 518.59130859375 128.685546875Q517.7880859375 129.13671875 516.673828125 129.13671875Q515.060546875 129.13671875 514.1923828125 128.1318359375Q513.32421875 127.126953125 513.32421875 125.25390625Q513.32421875 123.4287109375 514.17529296875 122.44775390625Q515.0263671875 121.466796875 516.6328125 121.466796875Q518.2392578125 121.466796875 519.06640625 122.4443359375Q519.8935546875 123.421875 519.8935546875 125.3974609375V125.5615234375ZM516.646484375 122.3759765625Q515.73046875 122.3759765625 515.197265625 122.97412109375Q514.6640625 123.572265625 514.6298828125 124.6181640625H518.6220703125Q518.4306640625 122.3759765625 516.646484375 122.3759765625Z"/><circle class="motion" cx="558" cy="125" r="3" fill="#98b77b"><animate attributeName="opacity" values=".1;1;.1" dur="3s" begin="-0s" repeatCount="indefinite"/></circle><path fill="#e6e7d9" aria-label="type: valid" d="M421.298828125 149.57421875V148.603515625H422.4609375L422.857421875 146.67578125H423.677734375V148.603515625H426.630859375V149.57421875H423.677734375V154.03125Q423.677734375 154.5712890625 423.96826171875 154.8310546875Q424.2587890625 155.0908203125 424.921875 155.0908203125Q425.837890625 155.0908203125 426.9521484375 154.8583984375V155.794921875Q425.796875 156.109375 424.662109375 156.109375Q423.5546875 156.109375 423.0009765625 155.64111328125Q422.447265625 155.1728515625 422.447265625 154.1611328125V149.57421875Z M430.3974609375 158.9052734375Q429.8916015625 158.9052734375 429.5498046875 158.830078125V157.9072265625Q429.8095703125 157.9482421875 430.1240234375 157.9482421875Q430.6640625 157.9482421875 431.13916015625 157.544921875Q431.6142578125 157.1416015625 431.9423828125 156.259765625L432.0654296875 155.9248046875L428.8525390625 148.603515625H430.1650390625L431.9697265625 152.9921875Q432.591796875 154.5234375 432.6396484375 154.728515625L432.919921875 153.9765625L435.0390625 148.603515625H436.337890625L433.220703125 156.0Q432.6123046875 157.6064453125 431.95947265625 158.255859375Q431.306640625 158.9052734375 430.3974609375 158.9052734375Z M444.25390625 152.267578125Q444.25390625 156.13671875 441.57421875 156.13671875Q439.892578125 156.13671875 439.3115234375 154.87890625H439.27734375Q439.3046875 154.93359375 439.3046875 156.013671875V158.9052734375H438.0673828125V150.134765625Q438.0673828125 148.97265625 438.0263671875 148.603515625H439.22265625Q439.2294921875 148.630859375 439.2431640625 148.80517578125Q439.2568359375 148.9794921875 439.27392578125 149.31787109375Q439.291015625 149.65625 439.291015625 149.8203125H439.318359375Q439.66015625 149.1025390625 440.18994140625 148.77783203125Q440.7197265625 148.453125 441.57421875 148.453125Q442.927734375 148.453125 443.5908203125 149.38623046875Q444.25390625 150.3193359375 444.25390625 152.267578125ZM442.982421875 152.267578125Q442.982421875 150.72265625 442.5654296875 150.06298828125Q442.1484375 149.4033203125 441.2529296875 149.4033203125Q440.220703125 149.4033203125 439.7626953125 150.15185546875Q439.3046875 150.900390625 439.3046875 152.41796875Q439.3046875 153.8740234375 439.7626953125 154.55078125Q440.220703125 155.2275390625 441.2392578125 155.2275390625Q442.1484375 155.2275390625 442.5654296875 154.537109375Q442.982421875 153.8466796875 442.982421875 152.267578125Z M447.4052734375 152.5615234375Q447.4052734375 153.8056640625 447.95556640625 154.509765625Q448.505859375 155.2138671875 449.462890625 155.2138671875Q450.1669921875 155.2138671875 450.69677734375 154.90966796875Q451.2265625 154.60546875 451.404296875 154.0791015625L452.484375 154.38671875Q452.18359375 155.234375 451.38037109375 155.685546875Q450.5771484375 156.13671875 449.462890625 156.13671875Q447.849609375 156.13671875 446.9814453125 155.1318359375Q446.11328125 154.126953125 446.11328125 152.25390625Q446.11328125 150.4287109375 446.96435546875 149.44775390625Q447.8154296875 148.466796875 449.421875 148.466796875Q451.0283203125 148.466796875 451.85546875 149.4443359375Q452.6826171875 150.421875 452.6826171875 152.3974609375V152.5615234375ZM449.435546875 149.3759765625Q448.51953125 149.3759765625 447.986328125 149.97412109375Q447.453125 150.572265625 447.4189453125 151.6181640625H451.4111328125Q451.2197265625 149.3759765625 449.435546875 149.3759765625Z M456.99609375 156.0V153.9560546875H458.6025390625V156.0ZM456.99609375 150.6474609375V148.603515625H458.6025390625V150.6474609375Z  M475.2958984375 156.0H473.83984375L470.8798828125 148.603515625H472.2607421875L474.0927734375 153.416015625L474.208984375 153.7783203125L474.564453125 155.0361328125L474.8037109375 154.236328125L475.0703125 153.4296875L476.95703125 148.603515625H478.3310546875Z M486.3359375 155.2412109375Q486.513671875 155.2412109375 486.7392578125 155.193359375V155.958984375Q486.2744140625 156.068359375 485.7890625 156.068359375Q485.10546875 156.068359375 484.79443359375 155.70947265625Q484.4833984375 155.3505859375 484.4423828125 154.5849609375H484.4013671875Q483.95703125 155.412109375 483.35205078125 155.7744140625Q482.7470703125 156.13671875 481.8583984375 156.13671875Q480.7783203125 156.13671875 480.2314453125 155.548828125Q479.6845703125 154.9609375 479.6845703125 153.935546875Q479.6845703125 151.5498046875 482.7880859375 151.515625L484.4013671875 151.48828125V151.0849609375Q484.4013671875 150.189453125 484.0390625 149.79638671875Q483.6767578125 149.4033203125 482.8837890625 149.4033203125Q482.0771484375 149.4033203125 481.7216796875 149.6904296875Q481.3662109375 149.9775390625 481.2978515625 150.5791015625L480.0126953125 150.462890625Q480.3271484375 148.466796875 482.904296875 148.466796875Q484.271484375 148.466796875 484.95849609375 149.10595703125Q485.6455078125 149.7451171875 485.6455078125 150.955078125V154.140625Q485.6455078125 154.6875 485.7890625 154.96435546875Q485.9326171875 155.2412109375 486.3359375 155.2412109375ZM482.1728515625 155.2001953125Q482.8291015625 155.2001953125 483.3349609375 154.8857421875Q483.8408203125 154.5712890625 484.12109375 154.044921875Q484.4013671875 153.5185546875 484.4013671875 152.9580078125V152.349609375L483.1025390625 152.376953125Q482.2958984375 152.390625 481.8720703125 152.5546875Q481.4482421875 152.71875 481.21240234375 153.05712890625Q480.9765625 153.3955078125 480.9765625 153.9560546875Q480.9765625 154.5166015625 481.28076171875 154.8583984375Q481.5849609375 155.2001953125 482.1728515625 155.2001953125Z M492.9189453125 154.9951171875 494.83984375 155.029296875V156.0L492.310546875 155.97265625Q491.5380859375 155.8359375 491.1826171875 155.357421875Q491.0322265625 155.15234375 491.01171875 154.236328125V146.826171875H489.0361328125V145.85546875H492.2421875V154.3798828125Q492.2490234375 154.6875 492.4130859375 154.837890625Q492.556640625 154.9677734375 492.9189453125 154.9951171875ZM492.9462890625 155.029296875ZM492.2421875 154.3798828125ZM492.3515625 156.0ZM491.01171875 155.029296875V154.236328125Z M500.705078125 155.029296875H503.302734375V156.0H496.58984375V155.029296875H499.474609375V149.57421875H497.2939453125V148.603515625H500.705078125ZM499.337890625 147.16796875V145.85546875H500.705078125V147.16796875Z M509.90625 154.810546875Q509.5712890625 155.5283203125 509.017578125 155.85302734375Q508.4638671875 156.177734375 507.63671875 156.177734375Q506.255859375 156.177734375 505.6064453125 155.2275390625Q504.95703125 154.27734375 504.95703125 152.36328125Q504.95703125 148.494140625 507.63671875 148.494140625Q508.4638671875 148.494140625 509.02099609375 148.7880859375Q509.578125 149.08203125 509.9130859375 149.751953125H509.9267578125L509.9130859375 148.7197265625V145.85546875H511.1435546875V154.4755859375Q511.1435546875 155.630859375 511.1845703125 156.0H510.0087890625Q509.9814453125 155.8974609375 509.9609375 155.5009765625Q509.9404296875 155.1044921875 509.9404296875 154.810546875ZM506.228515625 152.322265625Q506.228515625 153.83984375 506.63525390625 154.53369140625Q507.0419921875 155.2275390625 507.9580078125 155.2275390625Q508.9560546875 155.2275390625 509.4345703125 154.50634765625Q509.9130859375 153.78515625 509.9130859375 152.212890625Q509.9130859375 150.7431640625 509.45166015625 150.0732421875Q508.990234375 149.4033203125 507.9716796875 149.4033203125Q507.048828125 149.4033203125 506.638671875 150.107421875Q506.228515625 150.8115234375 506.228515625 152.322265625Z"/><circle class="motion" cx="558" cy="152" r="3" fill="#98b77b"><animate attributeName="opacity" values=".1;1;.1" dur="3s" begin="-1s" repeatCount="indefinite"/></circle><path fill="#e6e7d9" aria-label="local: true" d="M425.7080078125 181.9951171875 427.62890625 182.029296875V183.0L425.099609375 182.97265625Q424.3271484375 182.8359375 423.9716796875 182.357421875Q423.8212890625 182.15234375 423.80078125 181.236328125V173.826171875H421.8251953125V172.85546875H425.03125V181.3798828125Q425.0380859375 181.6875 425.2021484375 181.837890625Q425.345703125 181.9677734375 425.7080078125 181.9951171875ZM425.7353515625 182.029296875ZM425.03125 181.3798828125ZM425.140625 183.0ZM423.80078125 182.029296875V181.236328125Z M435.900390625 179.294921875Q435.900390625 181.1611328125 435.04248046875 182.14892578125Q434.1845703125 183.13671875 432.564453125 183.13671875Q430.978515625 183.13671875 430.13427734375 182.138671875Q429.2900390625 181.140625 429.2900390625 179.294921875Q429.2900390625 177.3876953125 430.15478515625 176.42724609375Q431.01953125 175.466796875 432.60546875 175.466796875Q434.2734375 175.466796875 435.0869140625 176.4169921875Q435.900390625 177.3671875 435.900390625 179.294921875ZM434.6083984375 179.294921875Q434.6083984375 177.8251953125 434.14013671875 177.1005859375Q433.671875 176.3759765625 432.6259765625 176.3759765625Q431.56640625 176.3759765625 431.07421875 177.1142578125Q430.58203125 177.8525390625 430.58203125 179.294921875Q430.58203125 180.73046875 431.07421875 181.47900390625Q431.56640625 182.2275390625 432.55078125 182.2275390625Q433.6376953125 182.2275390625 434.123046875 181.49609375Q434.6083984375 180.7646484375 434.6083984375 179.294921875Z M437.69140625 179.294921875Q437.69140625 177.44921875 438.5732421875 176.4580078125Q439.455078125 175.466796875 441.123046875 175.466796875Q442.3671875 175.466796875 443.173828125 176.06494140625Q443.98046875 176.6630859375 444.171875 177.6748046875L442.859375 177.7705078125Q442.75 177.1484375 442.3125 176.78955078125Q441.875 176.4306640625 441.068359375 176.4306640625Q439.98828125 176.4306640625 439.48583984375 177.1005859375Q438.9833984375 177.7705078125 438.9833984375 179.267578125Q438.9833984375 180.78515625 439.48583984375 181.48583984375Q439.98828125 182.1865234375 441.0615234375 182.1865234375Q441.7998046875 182.1865234375 442.28515625 181.82421875Q442.7705078125 181.4619140625 442.88671875 180.716796875L444.185546875 180.798828125Q444.0966796875 181.455078125 443.68994140625 181.99169921875Q443.283203125 182.5283203125 442.61328125 182.83251953125Q441.943359375 183.13671875 441.1162109375 183.13671875Q439.44140625 183.13671875 438.56640625 182.15234375Q437.69140625 181.16796875 437.69140625 179.294921875Z M452.73046875 182.2412109375Q452.908203125 182.2412109375 453.1337890625 182.193359375V182.958984375Q452.6689453125 183.068359375 452.18359375 183.068359375Q451.5 183.068359375 451.18896484375 182.70947265625Q450.8779296875 182.3505859375 450.8369140625 181.5849609375H450.7958984375Q450.3515625 182.412109375 449.74658203125 182.7744140625Q449.1416015625 183.13671875 448.2529296875 183.13671875Q447.1728515625 183.13671875 446.6259765625 182.548828125Q446.0791015625 181.9609375 446.0791015625 180.935546875Q446.0791015625 178.5498046875 449.1826171875 178.515625L450.7958984375 178.48828125V178.0849609375Q450.7958984375 177.189453125 450.43359375 176.79638671875Q450.0712890625 176.4033203125 449.2783203125 176.4033203125Q448.4716796875 176.4033203125 448.1162109375 176.6904296875Q447.7607421875 176.9775390625 447.6923828125 177.5791015625L446.4072265625 177.462890625Q446.7216796875 175.466796875 449.298828125 175.466796875Q450.666015625 175.466796875 451.35302734375 176.10595703125Q452.0400390625 176.7451171875 452.0400390625 177.955078125V181.140625Q452.0400390625 181.6875 452.18359375 181.96435546875Q452.3271484375 182.2412109375 452.73046875 182.2412109375ZM448.5673828125 182.2001953125Q449.2236328125 182.2001953125 449.7294921875 181.8857421875Q450.2353515625 181.5712890625 450.515625 181.044921875Q450.7958984375 180.5185546875 450.7958984375 179.9580078125V179.349609375L449.4970703125 179.376953125Q448.6904296875 179.390625 448.2666015625 179.5546875Q447.8427734375 179.71875 447.60693359375 180.05712890625Q447.37109375 180.3955078125 447.37109375 180.9560546875Q447.37109375 181.5166015625 447.67529296875 181.8583984375Q447.9794921875 182.2001953125 448.5673828125 182.2001953125Z M459.3134765625 181.9951171875 461.234375 182.029296875V183.0L458.705078125 182.97265625Q457.9326171875 182.8359375 457.5771484375 182.357421875Q457.4267578125 182.15234375 457.40625 181.236328125V173.826171875H455.4306640625V172.85546875H458.63671875V181.3798828125Q458.6435546875 181.6875 458.8076171875 181.837890625Q458.951171875 181.9677734375 459.3134765625 181.9951171875ZM459.3408203125 182.029296875ZM458.63671875 181.3798828125ZM458.74609375 183.0ZM457.40625 182.029296875V181.236328125Z M465.3974609375 183.0V180.9560546875H467.00390625V183.0ZM465.3974609375 177.6474609375V175.603515625H467.00390625V177.6474609375Z  M480.1083984375 176.57421875V175.603515625H481.2705078125L481.6669921875 173.67578125H482.4873046875V175.603515625H485.4404296875V176.57421875H482.4873046875V181.03125Q482.4873046875 181.5712890625 482.77783203125 181.8310546875Q483.068359375 182.0908203125 483.7314453125 182.0908203125Q484.6474609375 182.0908203125 485.76171875 181.8583984375V182.794921875Q484.6064453125 183.109375 483.4716796875 183.109375Q482.3642578125 183.109375 481.810546875 182.64111328125Q481.2568359375 182.1728515625 481.2568359375 181.1611328125V176.57421875Z M494.3544921875 176.724609375Q493.5888671875 176.5947265625 492.9052734375 176.5947265625Q491.8046875 176.5947265625 491.1279296875 177.421875Q490.451171875 178.2490234375 490.451171875 179.52734375V183.0H489.220703125V178.2080078125Q489.220703125 177.6884765625 489.12841796875 176.984375Q489.0361328125 176.2802734375 488.865234375 175.603515625H490.0341796875Q490.3076171875 176.546875 490.3623046875 177.3125H490.396484375Q490.73828125 176.546875 491.06640625 176.18798828125Q491.39453125 175.8291015625 491.845703125 175.64794921875Q492.296875 175.466796875 492.9462890625 175.466796875Q493.6572265625 175.466796875 494.3544921875 175.5830078125Z M498.107421875 175.603515625V180.29296875Q498.107421875 181.359375 498.4423828125 181.77294921875Q498.77734375 182.1865234375 499.638671875 182.1865234375Q500.5205078125 182.1865234375 501.033203125 181.5849609375Q501.5458984375 180.9833984375 501.5458984375 179.8896484375V175.603515625H502.783203125V181.4208984375Q502.783203125 182.712890625 502.82421875 183.0H501.662109375Q501.6552734375 182.9658203125 501.6484375 182.8154296875Q501.6416015625 182.6650390625 501.63134765625 182.47021484375Q501.62109375 182.275390625 501.607421875 181.7353515625H501.5869140625Q501.1630859375 182.5009765625 500.60595703125 182.81884765625Q500.048828125 183.13671875 499.2216796875 183.13671875Q498.0048828125 183.13671875 497.44091796875 182.53173828125Q496.876953125 181.9267578125 496.876953125 180.5322265625V175.603515625Z M506.21484375 179.5615234375Q506.21484375 180.8056640625 506.76513671875 181.509765625Q507.3154296875 182.2138671875 508.2724609375 182.2138671875Q508.9765625 182.2138671875 509.50634765625 181.90966796875Q510.0361328125 181.60546875 510.2138671875 181.0791015625L511.2939453125 181.38671875Q510.9931640625 182.234375 510.18994140625 182.685546875Q509.38671875 183.13671875 508.2724609375 183.13671875Q506.6591796875 183.13671875 505.791015625 182.1318359375Q504.9228515625 181.126953125 504.9228515625 179.25390625Q504.9228515625 177.4287109375 505.77392578125 176.44775390625Q506.625 175.466796875 508.2314453125 175.466796875Q509.837890625 175.466796875 510.6650390625 176.4443359375Q511.4921875 177.421875 511.4921875 179.3974609375V179.5615234375ZM508.2451171875 176.3759765625Q507.3291015625 176.3759765625 506.7958984375 176.97412109375Q506.2626953125 177.572265625 506.228515625 178.6181640625H510.220703125Q510.029296875 176.3759765625 508.2451171875 176.3759765625Z"/><circle class="motion" cx="558" cy="179" r="3" fill="#98b77b"><animate attributeName="opacity" values=".1;1;.1" dur="3s" begin="-2s" repeatCount="indefinite"/></circle><path fill="#e6e7d9" aria-label="OCR 2.0" d="M41.953 284.43Q37.394999999999996 284.43 34.385 282.452Q31.375 280.474 29.8915 276.905Q28.408 273.336 28.408 268.563Q28.408 263.79 29.8915 260.264Q31.375 256.738 34.4065 254.7815Q37.438 252.825 41.995999999999995 252.825Q46.339 252.825 49.3275 254.7815Q52.316 256.738 53.8855 260.2855Q55.455 263.833 55.455 268.606Q55.455 273.379 53.8855 276.92650000000003Q52.316 280.474 49.306 282.452Q46.296 284.43 41.953 284.43ZM41.953 284.0Q46.554 284.0 48.618 280.345Q50.682 276.69 50.682 268.606Q50.682 260.522 48.618 256.8885Q46.554 253.255 41.995999999999995 253.255Q37.394999999999996 253.255 35.288 256.8885Q33.181 260.522 33.181 268.606Q33.181 276.69 35.26649999999999 280.345Q37.352 284.0 41.953 284.0Z M73.687 284.43Q69.258 284.43 66.291 282.452Q63.324 280.474 61.8405 276.948Q60.357 273.422 60.357 268.735Q60.357 264.005 61.861999999999995 260.43600000000004Q63.367 256.867 66.44149999999999 254.8675Q69.51599999999999 252.868 74.203 252.868Q78.374 252.868 80.61 254.32999999999998Q82.846 255.792 82.846 257.813Q82.846 259.275 81.771 259.9845Q80.696 260.694 79.10499999999999 260.694Q79.10499999999999 256.695 77.815 255.018Q76.525 253.341 73.644 253.341Q69.086 253.341 67.108 257.1895Q65.13 261.038 65.13 268.52Q65.13 276.26 67.2585 280.13Q69.387 284.0 74.203 284.0Q77.127 284.0 78.91149999999999 282.5165Q80.696 281.033 81.59899999999999 277.722Q82.67399999999999 278.152 82.67399999999999 279.356Q82.67399999999999 280.431 81.685 281.6135Q80.696 282.796 78.6965 283.613Q76.697 284.43 73.687 284.43Z M85.942 284.0V283.57H86.50099999999999Q90.02699999999999 283.57 90.02699999999999 280.474V256.652Q90.02699999999999 253.728 86.50099999999999 253.728H85.942V253.298H97.50899999999999Q103.09899999999999 253.298 105.8295 255.3835Q108.55999999999999 257.469 108.55999999999999 261.339Q108.55999999999999 263.833 107.5495 265.44550000000004Q106.53899999999999 267.058 104.96949999999998 267.961Q103.39999999999999 268.864 101.72299999999998 269.337L107.78599999999999 278.797Q109.54899999999999 281.549 110.58099999999999 282.55949999999996Q111.61299999999999 283.57 112.64499999999998 283.57H112.77399999999999V284.0H112.172Q110.15099999999998 284.0 108.83949999999999 283.84950000000003Q107.52799999999999 283.699 106.66799999999999 283.312Q105.80799999999999 282.925 105.1415 282.1725Q104.475 281.42 103.701 280.216L97.079 269.681H94.36999999999999V280.474Q94.36999999999999 283.57 97.89599999999999 283.57H98.45499999999998V284.0ZM97.38 269.251Q100.94899999999998 269.251 102.45399999999998 267.5095Q103.95899999999999 265.76800000000003 103.95899999999999 261.64Q103.95899999999999 257.383 102.411 255.5555Q100.863 253.728 97.294 253.728H94.36999999999999V269.251Z  M124.38399999999999 284.0V280.861L130.619 274.11Q132.76899999999998 271.788 134.14499999999998 270.00350000000003Q135.521 268.219 136.295 266.671Q137.069 265.123 137.37 263.6395Q137.671 262.156 137.671 260.479Q137.671 256.609 136.6175 254.9535Q135.564 253.298 133.15599999999998 253.298Q130.619 253.298 129.587 255.1685Q128.55499999999998 257.039 128.55499999999998 261.425Q127.00699999999999 261.425 125.93199999999999 260.80150000000003Q124.85699999999999 260.178 124.85699999999999 258.458Q124.85699999999999 256.05 127.04999999999998 254.459Q129.243 252.868 133.19899999999998 252.868Q137.456 252.868 139.73499999999999 254.846Q142.01399999999998 256.824 142.01399999999998 260.221Q142.01399999999998 261.554 141.5625 262.9085Q141.111 264.263 139.90699999999998 265.9185Q138.70299999999997 267.574 136.5315 269.8315Q134.35999999999999 272.089 130.92 275.271L125.201 280.56H138.74599999999998Q140.81 280.56 141.627 279.829Q142.444 279.098 142.61599999999999 277.12L142.659 276.561H143.089L142.831 284.0Z M151.60299999999998 284.301Q149.28099999999998 284.301 149.28099999999998 281.377Q149.28099999999998 278.453 151.60299999999998 278.453Q153.92499999999998 278.453 153.92499999999998 281.377Q153.92499999999998 284.301 151.60299999999998 284.301Z M169.01799999999997 284.43Q165.492 284.43 163.25599999999997 282.452Q161.01999999999998 280.474 159.9665 276.905Q158.91299999999998 273.336 158.91299999999998 268.563Q158.91299999999998 263.79 159.9665 260.264Q161.01999999999998 256.738 163.25599999999997 254.803Q165.492 252.868 169.06099999999998 252.868Q172.415 252.868 174.65099999999998 254.803Q176.88699999999997 256.738 177.9835 260.2855Q179.07999999999998 263.833 179.07999999999998 268.606Q179.07999999999998 273.379 177.962 276.92650000000003Q176.844 280.474 174.6295 282.452Q172.415 284.43 169.01799999999997 284.43ZM169.01799999999997 284.0Q171.082 284.0 172.3075 282.5165Q173.533 281.033 174.07049999999998 277.6575Q174.60799999999998 274.282 174.60799999999998 268.606Q174.60799999999998 262.93 174.07049999999998 259.576Q173.533 256.222 172.32899999999998 254.76Q171.12499999999997 253.298 169.06099999999998 253.298Q166.95399999999998 253.298 165.707 254.76Q164.45999999999998 256.222 163.92249999999999 259.576Q163.385 262.93 163.385 268.606Q163.385 274.282 163.92249999999999 277.6575Q164.45999999999998 281.033 165.707 282.5165Q166.95399999999998 284.0 169.01799999999997 284.0Z"/><path fill="#aeb8a4" aria-label="TESSERACT / LOCAL GEMMA / VALIDATION" d="M31.154296875 312.009765625V319.0H30.041015625V312.009765625H27.4453125V311.095703125H33.75V312.009765625Z M35.150390625 319.0V311.095703125H40.53515625V312.009765625H36.26953125V314.482421875H40.18359375V315.384765625H36.26953125V318.0859375H40.775390625V319.0Z M48.01171875 316.83203125Q48.01171875 317.91015625 47.2236328125 318.513671875Q46.435546875 319.1171875 44.9765625 319.1171875Q42.298828125 319.1171875 41.865234375 317.01953125L42.94921875 316.802734375Q43.11328125 317.55859375 43.62890625 317.9013671875Q44.14453125 318.244140625 45.005859375 318.244140625Q45.9375 318.244140625 46.4208984375 317.880859375Q46.904296875 317.517578125 46.904296875 316.849609375Q46.904296875 316.439453125 46.7138671875 316.181640625Q46.5234375 315.923828125 46.212890625 315.759765625Q45.90234375 315.595703125 45.5126953125 315.4931640625Q45.123046875 315.390625 44.724609375 315.291015625Q43.78125 315.044921875 43.3798828125 314.8515625Q42.978515625 314.658203125 42.73828125 314.4091796875Q42.498046875 314.16015625 42.375 313.837890625Q42.251953125 313.515625 42.251953125 313.08203125Q42.251953125 312.068359375 42.9638671875 311.5205078125Q43.67578125 310.97265625 45.005859375 310.97265625Q46.248046875 310.97265625 46.904296875 311.40625Q47.560546875 311.83984375 47.818359375 312.87109375L46.716796875 313.064453125Q46.576171875 312.408203125 46.154296875 312.1123046875Q45.732421875 311.81640625 45.0 311.81640625Q43.341796875 311.81640625 43.341796875 313.064453125Q43.341796875 313.416015625 43.4970703125 313.6357421875Q43.65234375 313.85546875 43.9189453125 313.9990234375Q44.185546875 314.142578125 44.5400390625 314.236328125Q44.89453125 314.330078125 45.298828125 314.435546875Q46.11328125 314.640625 46.470703125 314.7783203125Q46.828125 314.916015625 47.1064453125 315.091796875Q47.384765625 315.267578125 47.583984375 315.5078125Q47.783203125 315.748046875 47.8974609375 316.0703125Q48.01171875 316.392578125 48.01171875 316.83203125Z M55.212890625 316.83203125Q55.212890625 317.91015625 54.4248046875 318.513671875Q53.63671875 319.1171875 52.177734375 319.1171875Q49.5 319.1171875 49.06640625 317.01953125L50.150390625 316.802734375Q50.314453125 317.55859375 50.830078125 317.9013671875Q51.345703125 318.244140625 52.20703125 318.244140625Q53.138671875 318.244140625 53.6220703125 317.880859375Q54.10546875 317.517578125 54.10546875 316.849609375Q54.10546875 316.439453125 53.9150390625 316.181640625Q53.724609375 315.923828125 53.4140625 315.759765625Q53.103515625 315.595703125 52.7138671875 315.4931640625Q52.32421875 315.390625 51.92578125 315.291015625Q50.982421875 315.044921875 50.5810546875 314.8515625Q50.1796875 314.658203125 49.939453125 314.4091796875Q49.69921875 314.16015625 49.576171875 313.837890625Q49.453125 313.515625 49.453125 313.08203125Q49.453125 312.068359375 50.1650390625 311.5205078125Q50.876953125 310.97265625 52.20703125 310.97265625Q53.44921875 310.97265625 54.10546875 311.40625Q54.76171875 311.83984375 55.01953125 312.87109375L53.91796875 313.064453125Q53.77734375 312.408203125 53.35546875 312.1123046875Q52.93359375 311.81640625 52.201171875 311.81640625Q50.54296875 311.81640625 50.54296875 313.064453125Q50.54296875 313.416015625 50.6982421875 313.6357421875Q50.853515625 313.85546875 51.1201171875 313.9990234375Q51.38671875 314.142578125 51.7412109375 314.236328125Q52.095703125 314.330078125 52.5 314.435546875Q53.314453125 314.640625 53.671875 314.7783203125Q54.029296875 314.916015625 54.3076171875 315.091796875Q54.5859375 315.267578125 54.78515625 315.5078125Q54.984375 315.748046875 55.0986328125 316.0703125Q55.212890625 316.392578125 55.212890625 316.83203125Z M56.75390625 319.0V311.095703125H62.138671875V312.009765625H57.873046875V314.482421875H61.787109375V315.384765625H57.873046875V318.0859375H62.37890625V319.0Z M68.61328125 319.0 66.46875 315.630859375H65.07421875V319.0H63.955078125V311.095703125H66.779296875Q68.14453125 311.095703125 68.859375 311.6611328125Q69.57421875 312.2265625 69.57421875 313.28125Q69.57421875 314.154296875 69.0263671875 314.751953125Q68.478515625 315.349609375 67.55859375 315.501953125L69.90234375 319.0ZM68.44921875 313.298828125Q68.44921875 311.9921875 66.66796875 311.9921875H65.07421875V314.74609375H66.71484375Q67.552734375 314.74609375 68.0009765625 314.37109375Q68.44921875 313.99609375 68.44921875 313.298828125Z M76.265625 319.0 75.45703125 316.76171875H72.158203125L71.35546875 319.0H70.20703125L73.1953125 311.095703125H74.466796875L77.40234375 319.0ZM73.81640625 311.939453125 73.74609375 312.16796875 73.341796875 313.41015625 72.45703125 315.888671875H75.169921875L74.15625 312.958984375Z M79.248046875 315.009765625Q79.248046875 316.609375 79.7490234375 317.4091796875Q80.25 318.208984375 81.28125 318.208984375Q81.873046875 318.208984375 82.353515625 317.8076171875Q82.833984375 317.40625 83.16796875 316.556640625L84.099609375 316.9375Q83.2265625 319.1171875 81.26953125 319.1171875Q79.728515625 319.1171875 78.8994140625 318.056640625Q78.0703125 316.99609375 78.0703125 315.009765625Q78.0703125 310.97265625 81.2109375 310.97265625Q83.197265625 310.97265625 83.94140625 312.935546875L82.95703125 313.31640625Q82.740234375 312.654296875 82.2802734375 312.2705078125Q81.8203125 311.88671875 81.216796875 311.88671875Q80.21484375 311.88671875 79.7314453125 312.642578125Q79.248046875 313.3984375 79.248046875 315.009765625Z M88.763671875 312.009765625V319.0H87.650390625V312.009765625H85.0546875V311.095703125H91.359375V312.009765625Z  M99.6796875 319.1171875 104.490234375 310.3046875H105.533203125L100.74609375 319.1171875Z  M114.802734375 319.0V311.095703125H115.921875V318.0859375H119.859375V319.0Z M127.212890625 315.009765625Q127.212890625 316.984375 126.4365234375 318.05078125Q125.66015625 319.1171875 124.20703125 319.1171875Q122.748046875 319.1171875 121.98046875 318.068359375Q121.212890625 317.01953125 121.212890625 315.009765625Q121.212890625 313.03515625 121.974609375 312.00390625Q122.736328125 310.97265625 124.21875 310.97265625Q125.666015625 310.97265625 126.439453125 311.9892578125Q127.212890625 313.005859375 127.212890625 315.009765625ZM126.03515625 315.009765625Q126.03515625 311.88671875 124.21875 311.88671875Q122.390625 311.88671875 122.390625 315.009765625Q122.390625 316.591796875 122.853515625 317.400390625Q123.31640625 318.208984375 124.212890625 318.208984375Q125.16796875 318.208984375 125.6015625 317.388671875Q126.03515625 316.568359375 126.03515625 315.009765625Z M129.65625 315.009765625Q129.65625 316.609375 130.1572265625 317.4091796875Q130.658203125 318.208984375 131.689453125 318.208984375Q132.28125 318.208984375 132.76171875 317.8076171875Q133.2421875 317.40625 133.576171875 316.556640625L134.5078125 316.9375Q133.634765625 319.1171875 131.677734375 319.1171875Q130.13671875 319.1171875 129.3076171875 318.056640625Q128.478515625 316.99609375 128.478515625 315.009765625Q128.478515625 310.97265625 131.619140625 310.97265625Q133.60546875 310.97265625 134.349609375 312.935546875L133.365234375 313.31640625Q133.1484375 312.654296875 132.6884765625 312.2705078125Q132.228515625 311.88671875 131.625 311.88671875Q130.623046875 311.88671875 130.1396484375 312.642578125Q129.65625 313.3984375 129.65625 315.009765625Z M141.076171875 319.0 140.267578125 316.76171875H136.96875L136.166015625 319.0H135.017578125L138.005859375 311.095703125H139.27734375L142.212890625 319.0ZM138.626953125 311.939453125 138.556640625 312.16796875 138.15234375 313.41015625 137.267578125 315.888671875H139.98046875L138.966796875 312.958984375Z M143.607421875 319.0V311.095703125H144.7265625V318.0859375H148.6640625V319.0Z  M163.072265625 318.220703125Q161.73046875 319.1171875 160.365234375 319.1171875Q158.900390625 319.1171875 158.091796875 318.0302734375Q157.283203125 316.943359375 157.283203125 315.009765625Q157.283203125 312.9765625 158.056640625 311.974609375Q158.830078125 310.97265625 160.3828125 310.97265625Q162.41015625 310.97265625 163.083984375 312.912109375L162.08203125 313.240234375Q161.61328125 311.88671875 160.39453125 311.88671875Q159.404296875 311.88671875 158.9326171875 312.625Q158.4609375 313.36328125 158.4609375 315.009765625Q158.4609375 318.208984375 160.458984375 318.208984375Q160.857421875 318.208984375 161.28515625 318.0859375Q161.712890625 317.962890625 161.982421875 317.775390625V315.806640625H160.265625V314.869140625H163.072265625Z M164.771484375 319.0V311.095703125H170.15625V312.009765625H165.890625V314.482421875H169.8046875V315.384765625H165.890625V318.0859375H170.396484375V319.0Z M176.513671875 319.0V313.9140625Q176.513671875 313.123046875 176.53125 312.736328125L176.548828125 312.150390625Q176.173828125 313.357421875 175.9921875 313.85546875L175.03125 316.421875H174.228515625L173.255859375 313.85546875Q173.150390625 313.5859375 172.693359375 312.150390625L172.716796875 313.9140625V319.0H171.779296875V311.095703125H173.16796875L174.251953125 313.9609375Q174.375 314.271484375 174.650390625 315.314453125L174.802734375 314.787109375L175.060546875 313.966796875L176.14453125 311.095703125H177.462890625V319.0Z M183.71484375 319.0V313.9140625Q183.71484375 313.123046875 183.732421875 312.736328125L183.75 312.150390625Q183.375 313.357421875 183.193359375 313.85546875L182.232421875 316.421875H181.4296875L180.45703125 313.85546875Q180.3515625 313.5859375 179.89453125 312.150390625L179.91796875 313.9140625V319.0H178.98046875V311.095703125H180.369140625L181.453125 313.9609375Q181.576171875 314.271484375 181.8515625 315.314453125L182.00390625 314.787109375L182.26171875 313.966796875L183.345703125 311.095703125H184.6640625V319.0Z M191.484375 319.0 190.67578125 316.76171875H187.376953125L186.57421875 319.0H185.42578125L188.4140625 311.095703125H189.685546875L192.62109375 319.0ZM189.03515625 311.939453125 188.96484375 312.16796875 188.560546875 313.41015625 187.67578125 315.888671875H190.388671875L189.375 312.958984375Z  M200.49609375 319.1171875 205.306640625 310.3046875H206.349609375L201.5625 319.1171875Z  M218.408203125 319.0H217.248046875L214.2890625 311.095703125H215.466796875L217.341796875 316.380859375Q217.5234375 316.884765625 217.833984375 318.015625Q218.068359375 317.142578125 218.326171875 316.380859375L220.189453125 311.095703125H221.3671875Z M227.490234375 319.0 226.681640625 316.76171875H223.3828125L222.580078125 319.0H221.431640625L224.419921875 311.095703125H225.69140625L228.626953125 319.0ZM225.041015625 311.939453125 224.970703125 312.16796875 224.56640625 313.41015625 223.681640625 315.888671875H226.39453125L225.380859375 312.958984375Z M230.021484375 319.0V311.095703125H231.140625V318.0859375H235.078125V319.0Z M237.017578125 311.095703125H241.83984375V312.009765625H239.98828125V318.0859375H241.83984375V319.0H237.017578125V318.0859375H238.869140625V312.009765625H237.017578125Z M249.626953125 314.96875Q249.626953125 316.908203125 248.7275390625 317.9541015625Q247.828125 319.0 246.15234375 319.0H243.984375V311.095703125H245.806640625Q247.734375 311.095703125 248.6806640625 312.0595703125Q249.626953125 313.0234375 249.626953125 314.96875ZM248.501953125 314.96875Q248.501953125 313.421875 247.857421875 312.7158203125Q247.212890625 312.009765625 245.8125 312.009765625H245.103515625V318.0859375H246.052734375Q247.294921875 318.0859375 247.8984375 317.306640625Q248.501953125 316.52734375 248.501953125 314.96875Z M256.294921875 319.0 255.486328125 316.76171875H252.1875L251.384765625 319.0H250.236328125L253.224609375 311.095703125H254.49609375L257.431640625 319.0ZM253.845703125 311.939453125 253.775390625 312.16796875 253.37109375 313.41015625 252.486328125 315.888671875H255.19921875L254.185546875 312.958984375Z M261.591796875 312.009765625V319.0H260.478515625V312.009765625H257.8828125V311.095703125H264.1875V312.009765625Z M265.822265625 311.095703125H270.64453125V312.009765625H268.79296875V318.0859375H270.64453125V319.0H265.822265625V318.0859375H267.673828125V312.009765625H265.822265625Z M278.4375 315.009765625Q278.4375 316.984375 277.6611328125 318.05078125Q276.884765625 319.1171875 275.431640625 319.1171875Q273.97265625 319.1171875 273.205078125 318.068359375Q272.4375 317.01953125 272.4375 315.009765625Q272.4375 313.03515625 273.19921875 312.00390625Q273.9609375 310.97265625 275.443359375 310.97265625Q276.890625 310.97265625 277.6640625 311.9892578125Q278.4375 313.005859375 278.4375 315.009765625ZM277.259765625 315.009765625Q277.259765625 311.88671875 275.443359375 311.88671875Q273.615234375 311.88671875 273.615234375 315.009765625Q273.615234375 316.591796875 274.078125 317.400390625Q274.541015625 318.208984375 275.4375 318.208984375Q276.392578125 318.208984375 276.826171875 317.388671875Q277.259765625 316.568359375 277.259765625 315.009765625Z M283.939453125 319.0 280.892578125 312.37890625Q280.986328125 313.38671875 280.986328125 313.8671875V319.0H279.990234375V311.095703125H281.291015625L284.384765625 317.763671875Q284.279296875 316.919921875 284.279296875 316.158203125V311.095703125H285.287109375V319.0Z"/></svg>