<svg xmlns="http://www.w3.org/2000/svg" viewBox="0 0 1200 360" role="img" aria-labelledby="title desc">
<title id="title">Yernur — yrn-dev</title>
<desc id="desc">A dark starfield with softly twinkling stars and neon blue, violet and turquoise orbital trails.</desc>
<defs>
 <linearGradient id="bg" x2="1" y2="1"><stop stop-color="#080c18"/><stop offset="1" stop-color="#101020"/></linearGradient>
 <linearGradient id="accent"><stop stop-color="#65ffe0"/><stop offset=".45" stop-color="#72c9ff"/><stop offset="1" stop-color="#bc8dff"/></linearGradient>
 <radialGradient id="halo"><stop stop-color="#6f43dd" stop-opacity=".22"/><stop offset="1" stop-color="#6f43dd" stop-opacity="0"/></radialGradient>
 <radialGradient id="core"><stop stop-color="#e6fff8"/><stop offset=".25" stop-color="#69eadc"/><stop offset="1" stop-color="#5873fb" stop-opacity="0"/></radialGradient>
 <clipPath id="bounds"><rect width="1200" height="360" rx="20"/></clipPath>
</defs>
<style>@media (prefers-reduced-motion: reduce) { .motion { display: none; } }</style>
<g clip-path="url(#bounds)">
<rect width="1200" height="360" fill="url(#bg)"/>
<ellipse cx="930" cy="180" rx="320" ry="280" fill="url(#halo)"/>
<circle cx="248" cy="32" r="1.2" fill="#c7ddff" opacity="0.30"/>
<circle class="motion" cx="248" cy="32" r="1.9" fill="#b5faff" opacity="0"><animate attributeName="opacity" values="0;.8;0" dur="4s" begin="-0s" repeatCount="indefinite"/></circle>
<circle cx="1136" cy="64" r="1.5" fill="#c7ddff" opacity="0.19"/>
<circle cx="496" cy="278" r="0.7" fill="#c7ddff" opacity="0.44"/>
<circle class="motion" cx="496" cy="278" r="1.4" fill="#b5faff" opacity="0"><animate attributeName="opacity" values="0;.8;0" dur="8s" begin="-4s" repeatCount="indefinite"/></circle>
<circle cx="1136" cy="234" r="0.9" fill="#c7ddff" opacity="0.39"/>
<circle cx="589" cy="23" r="0.9" fill="#c7ddff" opacity="0.51"/>
<circle cx="716" cy="162" r="0.9" fill="#c7ddff" opacity="0.28"/>
<circle cx="709" cy="72" r="0.7" fill="#c7ddff" opacity="0.36"/>
<circle class="motion" cx="709" cy="72" r="1.4" fill="#b5faff" opacity="0"><animate attributeName="opacity" values="0;.8;0" dur="7s" begin="-2s" repeatCount="indefinite"/></circle>
<circle cx="755" cy="196" r="1.2" fill="#c7ddff" opacity="0.56"/>
<circle cx="960" cy="294" r="0.7" fill="#c7ddff" opacity="0.64"/>
<circle cx="795" cy="60" r="1.2" fill="#c7ddff" opacity="0.57"/>
<circle cx="760" cy="315" r="0.9" fill="#c7ddff" opacity="0.51"/>
<circle class="motion" cx="760" cy="315" r="1.6" fill="#b5faff" opacity="0"><animate attributeName="opacity" values="0;.8;0" dur="6s" begin="-0s" repeatCount="indefinite"/></circle>
<circle cx="612" cy="60" r="0.9" fill="#c7ddff" opacity="0.59"/>
<circle cx="798" cy="162" r="1.5" fill="#c7ddff" opacity="0.48"/>
<circle cx="767" cy="103" r="1.2" fill="#c7ddff" opacity="0.35"/>
<circle class="motion" cx="767" cy="103" r="1.9" fill="#b5faff" opacity="0"><animate attributeName="opacity" values="0;.8;0" dur="5s" begin="-4s" repeatCount="indefinite"/></circle>
<circle cx="566" cy="56" r="0.9" fill="#c7ddff" opacity="0.43"/>
<circle cx="966" cy="214" r="1.2" fill="#c7ddff" opacity="0.65"/>
<circle cx="1160" cy="132" r="1.2" fill="#c7ddff" opacity="0.58"/>
<circle class="motion" cx="1160" cy="132" r="1.9" fill="#b5faff" opacity="0"><animate attributeName="opacity" values="0;.8;0" dur="4s" begin="-2s" repeatCount="indefinite"/></circle>
<circle cx="841" cy="157" r="0.7" fill="#c7ddff" opacity="0.28"/>
<circle cx="664" cy="128" r="1.5" fill="#c7ddff" opacity="0.37"/>
<circle class="motion" cx="664" cy="128" r="2.2" fill="#b5faff" opacity="0"><animate attributeName="opacity" values="0;.8;0" dur="8s" begin="-0s" repeatCount="indefinite"/></circle>
<circle cx="959" cy="93" r="1.2" fill="#c7ddff" opacity="0.25"/>
<circle cx="1169" cy="295" r="1.2" fill="#c7ddff" opacity="0.53"/>
<circle cx="897" cy="318" r="1.5" fill="#c7ddff" opacity="0.35"/>
<circle cx="303" cy="280" r="1.5" fill="#c7ddff" opacity="0.22"/>
<circle class="motion" cx="303" cy="280" r="2.2" fill="#b5faff" opacity="0"><animate attributeName="opacity" values="0;.8;0" dur="7s" begin="-4s" repeatCount="indefinite"/></circle>
<circle cx="884" cy="325" r="0.7" fill="#c7ddff" opacity="0.36"/>
<circle cx="978" cy="290" r="1.2" fill="#c7ddff" opacity="0.64"/>
<circle class="motion" cx="978" cy="290" r="1.9" fill="#b5faff" opacity="0"><animate attributeName="opacity" values="0;.8;0" dur="6s" begin="-2s" repeatCount="indefinite"/></circle>
<circle cx="1119" cy="156" r="1.2" fill="#c7ddff" opacity="0.23"/>
<circle cx="910" cy="100" r="1.5" fill="#c7ddff" opacity="0.18"/>
<circle cx="559" cy="276" r="0.9" fill="#c7ddff" opacity="0.42"/>
<circle class="motion" cx="559" cy="276" r="1.6" fill="#b5faff" opacity="0"><animate attributeName="opacity" values="0;.8;0" dur="5s" begin="-0s" repeatCount="indefinite"/></circle>
<circle cx="237" cy="340" r="1.2" fill="#c7ddff" opacity="0.58"/>
<circle cx="1059" cy="331" r="0.9" fill="#c7ddff" opacity="0.25"/>
<circle cx="350" cy="296" r="0.7" fill="#c7ddff" opacity="0.46"/>
<circle cx="1020" cy="29" r="0.7" fill="#c7ddff" opacity="0.62"/>
<circle class="motion" cx="1020" cy="29" r="1.4" fill="#b5faff" opacity="0"><animate attributeName="opacity" values="0;.8;0" dur="4s" begin="-4s" repeatCount="indefinite"/></circle>
<circle cx="181" cy="63" r="1.5" fill="#c7ddff" opacity="0.56"/>
<circle cx="1110" cy="84" r="0.9" fill="#c7ddff" opacity="0.49"/>
<circle class="motion" cx="1110" cy="84" r="1.6" fill="#b5faff" opacity="0"><animate attributeName="opacity" values="0;.8;0" dur="8s" begin="-2s" repeatCount="indefinite"/></circle>
<circle cx="1145" cy="104" r="1.2" fill="#c7ddff" opacity="0.43"/>
<circle cx="886" cy="128" r="0.9" fill="#c7ddff" opacity="0.52"/>
<circle cx="837" cy="211" r="1.5" fill="#c7ddff" opacity="0.60"/>
<circle cx="944" cy="81" r="0.9" fill="#c7ddff" opacity="0.29"/>
<circle class="motion" cx="944" cy="81" r="1.6" fill="#b5faff" opacity="0"><animate attributeName="opacity" values="0;.8;0" dur="7s" begin="-0s" repeatCount="indefinite"/></circle>
<circle cx="712" cy="30" r="0.9" fill="#c7ddff" opacity="0.46"/>
<circle cx="34" cy="56" r="0.7" fill="#c7ddff" opacity="0.29"/>
<circle cx="165" cy="283" r="0.9" fill="#c7ddff" opacity="0.31"/>
<circle class="motion" cx="165" cy="283" r="1.6" fill="#b5faff" opacity="0"><animate attributeName="opacity" values="0;.8;0" dur="6s" begin="-4s" repeatCount="indefinite"/></circle>
<circle cx="1014" cy="129" r="0.9" fill="#c7ddff" opacity="0.52"/>
<circle cx="988" cy="144" r="1.5" fill="#c7ddff" opacity="0.56"/>
<circle cx="409" cy="68" r="0.7" fill="#c7ddff" opacity="0.49"/>
<circle cx="745" cy="236" r="1.5" fill="#c7ddff" opacity="0.40"/>
<circle class="motion" cx="745" cy="236" r="2.2" fill="#b5faff" opacity="0"><animate attributeName="opacity" values="0;.8;0" dur="5s" begin="-2s" repeatCount="indefinite"/></circle>
<circle cx="714" cy="75" r="0.9" fill="#c7ddff" opacity="0.27"/>
<circle cx="1118" cy="249" r="0.9" fill="#c7ddff" opacity="0.38"/>
<circle class="motion" cx="1118" cy="249" r="1.6" fill="#b5faff" opacity="0"><animate attributeName="opacity" values="0;.8;0" dur="4s" begin="-0s" repeatCount="indefinite"/></circle>
<circle cx="531" cy="58" r="1.5" fill="#c7ddff" opacity="0.56"/>
<circle cx="1147" cy="70" r="0.7" fill="#c7ddff" opacity="0.49"/>
<path d="M 56 50 H 1144" stroke="#778cac" stroke-opacity=".15"/>
<circle cx="59" cy="29" r="3" fill="#70ead7"/>
<text x="73" y="33" fill="#8596b5" font-family="monospace" font-size="11" letter-spacing="2">PERSONAL SPACE / YRN-DEV</text>
<text x="1144" y="33" text-anchor="end" fill="#8596b5" font-family="monospace" font-size="11" letter-spacing="2">HELLO, WORLD.</text>
<text x="56" y="119" fill="#a7b6d2" font-family="monospace" font-size="16" letter-spacing="2">WELCOME TO MY UNIVERSE</text>
<text x="50" y="223" fill="url(#accent)" font-family="Arial, Helvetica, sans-serif" font-size="106" font-weight="700" letter-spacing="1">YERNUR</text>
<text x="58" y="268" fill="#c0cce1" font-family="monospace" font-size="19" letter-spacing="2">@yrn-dev</text>
<rect x="176" y="251" width="10" height="20" fill="#79e8d9" opacity=".6" class="motion"><animate attributeName="opacity" values=".6;.1;.6" dur="2s" repeatCount="indefinite"/></rect>
<ellipse cx="930" cy="180" rx="65" ry="37.699999999999996" transform="rotate(-35 930 180)" fill="none" stroke="#56eedb" stroke-opacity=".24" stroke-width="1"/>
<g class="motion"><animateTransform attributeName="transform" type="rotate" from="0 930 180" to="360 930 180" dur="24s" repeatCount="indefinite"/><circle cx="995" cy="180" r="2.5" fill="#56eedb"/><circle cx="995" cy="180" r="6" fill="#56eedb" opacity=".13"/></g>
<ellipse cx="930" cy="180" rx="80" ry="46.4" transform="rotate(-16 930 180)" fill="none" stroke="#47caff" stroke-opacity=".24" stroke-width="1"/>
<g class="motion"><animateTransform attributeName="transform" type="rotate" from="60 930 180" to="420 930 180" dur="31s" repeatCount="indefinite"/><circle cx="1010" cy="180" r="2.5" fill="#47caff"/><circle cx="1010" cy="180" r="6" fill="#47caff" opacity=".13"/></g>
<ellipse cx="930" cy="180" rx="95" ry="55.099999999999994" transform="rotate(3 930 180)" fill="none" stroke="#6183ff" stroke-opacity=".24" stroke-width="1"/>
<g class="motion"><animateTransform attributeName="transform" type="rotate" from="120 930 180" to="480 930 180" dur="38s" repeatCount="indefinite"/><circle cx="1025" cy="180" r="2.5" fill="#6183ff"/><circle cx="1025" cy="180" r="6" fill="#6183ff" opacity=".13"/></g>
<ellipse cx="930" cy="180" rx="110" ry="63.8" transform="rotate(22 930 180)" fill="none" stroke="#8870ff" stroke-opacity=".24" stroke-width="1"/>
<g class="motion"><animateTransform attributeName="transform" type="rotate" from="180 930 180" to="540 930 180" dur="45s" repeatCount="indefinite"/><circle cx="1040" cy="180" r="2.5" fill="#8870ff"/><circle cx="1040" cy="180" r="6" fill="#8870ff" opacity=".13"/></g>
<ellipse cx="930" cy="180" rx="125" ry="72.5" transform="rotate(41 930 180)" fill="none" stroke="#a263ef" stroke-opacity=".24" stroke-width="1"/>
<g class="motion"><animateTransform attributeName="transform" type="rotate" from="240 930 180" to="600 930 180" dur="52s" repeatCount="indefinite"/><circle cx="1055" cy="180" r="2.5" fill="#a263ef"/><circle cx="1055" cy="180" r="6" fill="#a263ef" opacity=".13"/></g>
<ellipse cx="930" cy="180" rx="140" ry="81.19999999999999" transform="rotate(60 930 180)" fill="none" stroke="#bc5ee9" stroke-opacity=".24" stroke-width="1"/>
<g class="motion"><animateTransform attributeName="transform" type="rotate" from="300 930 180" to="660 930 180" dur="59s" repeatCount="indefinite"/><circle cx="1070" cy="180" r="2.5" fill="#bc5ee9"/><circle cx="1070" cy="180" r="6" fill="#bc5ee9" opacity=".13"/></g>
<circle cx="930" cy="180" r="38" fill="url(#core)" opacity=".7"/>
<circle cx="930" cy="180" r="7" fill="#b6ffed"/>
<circle cx="930" cy="180" r="18" fill="none" stroke="#aaffec" stroke-opacity=".4"/>
<path d="M 915 180 H 945 M 930 165 V 195" stroke="#f0fffb" stroke-opacity=".65"/>
<path d="M 56 310 H 1144" stroke="#778cac" stroke-opacity=".15"/>
<text x="56" y="336" fill="#8495b4" font-family="monospace" font-size="11" letter-spacing="3">CODE · CREATE · EXPLORE</text>
<text x="1144" y="336" text-anchor="end" fill="#8495b4" font-family="monospace" font-size="11" letter-spacing="2">∞ POSSIBILITIES</text>
</g>
<rect x=".5" y=".5" width="1199" height="359" rx="20" fill="none" stroke="#667493" stroke-opacity=".22"/>
</svg>
